<svg width="96" height="96" xmlns="http://www.w3.org/2000/svg" xmlns:xlink="http://www.w3.org/1999/xlink" xml:space="preserve" overflow="hidden"><g transform="translate(-60 -28)"><path d="M108 48C109.1 48 110 48.9 110 50 110 51.1 109.1 52 108 52 106.9 52 106 51.1 106 50 106 48.9 106.9 48 108 48ZM120 108C120 106.9 119.1 106 118 106L111 106 111 55.2C111.9 54.7 112.7 53.9 113.2 53L132.4 53 126.8 82 130.9 82 135.3 59.2 140.9 82 145 82 137.7 53 139 53C140.7 53 142 51.7 142 50 142 48.3 140.7 47 139 47L113.2 47C112.7 46.1 111.9 45.3 111 44.8L111 39C111 37.3 109.7 36 108 36 106.3 36 105 37.3 105 39L105 44.8C104.1 45.3 103.3 46.1 102.8 47L77 47C75.3 47 74 48.3 74 50 74 51.4 75 52.7 76.4 52.9L70.7 82 74.8 82 79.2 59.2 84.9 82 89 82 81.7 53 102.7 53C103.2 53.9 104 54.7 104.9 55.2L104.9 106 97.9 106C96.8 106 95.9 106.9 95.9 108L95.9 110 84 110 84 116 132 116 132 110 120 110 120 108Z" fill="#FFFFFF"/><path d="M92 85 68 85C68 88.3 73.4 91 80 91 86.6 91 92 88.3 92 85Z" fill="#FFFFFF"/><path d="M124 85C124 88.3 129.4 91 136 91 142.6 91 148 88.3 148 85L124 85Z" fill="#FFFFFF"/></g></svg>